<mxfile host="drawio-plugin" modified="2024-03-21T16:34:57.676Z" agent="5.0 (Windows NT 10.0; Win64; x64) AppleWebKit/537.36 (KHTML, like Gecko) Chrome/111.0.0.0 Safari/537.36" etag="lFZHBpnWb0o7vJ6Zwih9" version="20.5.3" type="embed"><diagram id="23iRSUPoRavnBvh4doch" name="Page-1"><mxGraphModel dx="723" dy="583" grid="1" gridSize="10" guides="1" tooltips="1" connect="1" arrows="1" fold="1" page="1" pageScale="1" pageWidth="827" pageHeight="1169" math="0" shadow="0"><root><mxCell id="0"/><mxCell id="1" parent="0"/><mxCell id="2" value="&lt;p style=&quot;margin:0px;margin-top:4px;text-align:center;&quot;&gt;&lt;i&gt;&amp;lt;&amp;lt;Interface&amp;gt;&amp;gt;&lt;/i&gt;&lt;br&gt;&lt;b&gt;TaxStrategy&lt;/b&gt;&lt;/p&gt;&lt;hr size=&quot;1&quot;&gt;&lt;p style=&quot;margin:0px;margin-left:4px;&quot;&gt;+ calculate(sum: double) : double&lt;/p&gt;&lt;p style=&quot;margin:0px;margin-left:4px;&quot;&gt;&lt;br&gt;&lt;/p&gt;" style="verticalAlign=top;align=left;overflow=fill;fontSize=12;fontFamily=Helvetica;html=1;" vertex="1" parent="1"><mxGeometry x="480" y="80" width="200" height="70" as="geometry"/></mxCell><mxCell id="3" value="BasicTaxStrategy" style="swimlane;fontStyle=1;align=center;verticalAlign=top;childLayout=stackLayout;horizontal=1;startSize=26;horizontalStack=0;resizeParent=1;resizeParentMax=0;resizeLast=0;collapsible=1;marginBottom=0;" vertex="1" parent="1"><mxGeometry x="480" y="200" width="200" height="52" as="geometry"/></mxCell><mxCell id="6" value="+ сalculate(sum: double): type" style="text;strokeColor=none;fillColor=none;align=left;verticalAlign=top;spacingLeft=4;spacingRight=4;overflow=hidden;rotatable=0;points=[[0,0.5],[1,0.5]];portConstraint=eastwest;" vertex="1" parent="3"><mxGeometry y="26" width="200" height="26" as="geometry"/></mxCell><mxCell id="7" value="LuxTaxStrategy" style="swimlane;fontStyle=1;align=center;verticalAlign=top;childLayout=stackLayout;horizontal=1;startSize=26;horizontalStack=0;resizeParent=1;resizeParentMax=0;resizeLast=0;collapsible=1;marginBottom=0;" vertex="1" parent="1"><mxGeometry x="480" y="280" width="200" height="52" as="geometry"/></mxCell><mxCell id="8" value="+ сalculate(sum: double): type" style="text;strokeColor=none;fillColor=none;align=left;verticalAlign=top;spacingLeft=4;spacingRight=4;overflow=hidden;rotatable=0;points=[[0,0.5],[1,0.5]];portConstraint=eastwest;" vertex="1" parent="7"><mxGeometry y="26" width="200" height="26" as="geometry"/></mxCell><mxCell id="9" value="NoTaxStrategy" style="swimlane;fontStyle=1;align=center;verticalAlign=top;childLayout=stackLayout;horizontal=1;startSize=26;horizontalStack=0;resizeParent=1;resizeParentMax=0;resizeLast=0;collapsible=1;marginBottom=0;" vertex="1" parent="1"><mxGeometry x="480" y="360" width="200" height="52" as="geometry"/></mxCell><mxCell id="10" value="+ сalculate(sum: double): type" style="text;strokeColor=none;fillColor=none;align=left;verticalAlign=top;spacingLeft=4;spacingRight=4;overflow=hidden;rotatable=0;points=[[0,0.5],[1,0.5]];portConstraint=eastwest;" vertex="1" parent="9"><mxGeometry y="26" width="200" height="26" as="geometry"/></mxCell><mxCell id="11" value="" style="endArrow=block;dashed=1;endFill=0;endSize=12;html=1;rounded=0;entryX=1;entryY=0.5;entryDx=0;entryDy=0;" edge="1" parent="1" target="2"><mxGeometry width="160" relative="1" as="geometry"><mxPoint x="720" y="370" as="sourcePoint"/><mxPoint x="670" y="260" as="targetPoint"/><Array as="points"><mxPoint x="720" y="115"/></Array></mxGeometry></mxCell><mxCell id="12" value="" style="endArrow=block;dashed=1;endFill=0;endSize=12;html=1;rounded=0;exitX=1;exitY=0.25;exitDx=0;exitDy=0;" edge="1" parent="1" source="3"><mxGeometry width="160" relative="1" as="geometry"><mxPoint x="620" y="280" as="sourcePoint"/><mxPoint x="720" y="213" as="targetPoint"/></mxGeometry></mxCell><mxCell id="13" value="" style="endArrow=block;dashed=1;endFill=0;endSize=12;html=1;rounded=0;exitX=1;exitY=0.25;exitDx=0;exitDy=0;" edge="1" parent="1" source="7"><mxGeometry width="160" relative="1" as="geometry"><mxPoint x="690" y="223" as="sourcePoint"/><mxPoint x="720" y="293" as="targetPoint"/></mxGeometry></mxCell><mxCell id="14" value="" style="endArrow=block;dashed=1;endFill=0;endSize=12;html=1;rounded=0;exitX=1;exitY=0.25;exitDx=0;exitDy=0;" edge="1" parent="1" source="9"><mxGeometry width="160" relative="1" as="geometry"><mxPoint x="690" y="302.9999999999999" as="sourcePoint"/><mxPoint x="720" y="373" as="targetPoint"/></mxGeometry></mxCell><mxCell id="15" value="Shop" style="swimlane;fontStyle=1;align=center;verticalAlign=top;childLayout=stackLayout;horizontal=1;startSize=26;horizontalStack=0;resizeParent=1;resizeParentMax=0;resizeLast=0;collapsible=1;marginBottom=0;" vertex="1" parent="1"><mxGeometry x="120" y="200" width="240" height="130" as="geometry"/></mxCell><mxCell id="16" value="- strategy: TaxStrategy" style="text;strokeColor=none;fillColor=none;align=left;verticalAlign=top;spacingLeft=4;spacingRight=4;overflow=hidden;rotatable=0;points=[[0,0.5],[1,0.5]];portConstraint=eastwest;" vertex="1" parent="15"><mxGeometry y="26" width="240" height="26" as="geometry"/></mxCell><mxCell id="17" value="" style="line;strokeWidth=1;fillColor=none;align=left;verticalAlign=middle;spacingTop=-1;spacingLeft=3;spacingRight=3;rotatable=0;labelPosition=right;points=[];portConstraint=eastwest;strokeColor=inherit;" vertex="1" parent="15"><mxGeometry y="52" width="240" height="8" as="geometry"/></mxCell><mxCell id="18" value="+ Shop(): Shop&#10;&#10;+ setStrategy(strategy: TaxStrategy)&#10;+ printCheck(sum: Double): type" style="text;strokeColor=none;fillColor=none;align=left;verticalAlign=top;spacingLeft=4;spacingRight=4;overflow=hidden;rotatable=0;points=[[0,0.5],[1,0.5]];portConstraint=eastwest;" vertex="1" parent="15"><mxGeometry y="60" width="240" height="70" as="geometry"/></mxCell><mxCell id="19" value="Actor" style="shape=umlActor;verticalLabelPosition=bottom;verticalAlign=top;html=1;outlineConnect=0;" vertex="1" parent="1"><mxGeometry x="185" y="40" width="30" height="60" as="geometry"/></mxCell><mxCell id="20" value="1" style="endArrow=open;html=1;endSize=12;startArrow=diamondThin;startSize=14;startFill=0;edgeStyle=orthogonalEdgeStyle;align=left;verticalAlign=bottom;rounded=0;entryX=0;entryY=0.25;entryDx=0;entryDy=0;" edge="1" parent="1" source="16" target="2"><mxGeometry x="-1" y="3" relative="1" as="geometry"><mxPoint x="380" y="280" as="sourcePoint"/><mxPoint x="430" y="260" as="targetPoint"/></mxGeometry></mxCell><mxCell id="21" value="Use" style="endArrow=open;endSize=12;dashed=1;html=1;rounded=0;exitX=1;exitY=0.3333333333333333;exitDx=0;exitDy=0;exitPerimeter=0;entryX=0.5;entryY=0;entryDx=0;entryDy=0;edgeStyle=orthogonalEdgeStyle;" edge="1" parent="1" source="19" target="15"><mxGeometry width="160" relative="1" as="geometry"><mxPoint x="270" y="260" as="sourcePoint"/><mxPoint x="430" y="260" as="targetPoint"/></mxGeometry></mxCell></root></mxGraphModel></diagram></mxfile>